<?xml version="1.0" encoding="utf-8"?>
<!-- Generator: Adobe Illustrator 24.2.3, SVG Export Plug-In . SVG Version: 6.00 Build 0)  -->
<svg version="1.1" id="Layer_1" xmlns="http://www.w3.org/2000/svg" xmlns:xlink="http://www.w3.org/1999/xlink" x="0px" y="0px"
	 viewBox="0 0 616.99 616.99" style="enable-background:new 0 0 616.99 616.99;" xml:space="preserve">
<style type="text/css">
	.st0{fill:#FEFDFD;}
	.st1{fill:#FCB102;}
	.st2{fill:#231F20;}
	.st3{fill:#FA0303;}
</style>
<g>
	<path class="st0" d="M78.63,221.83c0-48.56,0.01-97.12-0.03-145.69c0-1.36,0.31-1.67,1.67-1.67c73.36,0.04,146.72,0.03,220.08,0.03
		c0.12,0.05,0.17,0.14,0.16,0.27c-0.29,0.06-0.58,0.17-0.88,0.17c-12.16,0.25-24.3,0.9-36.44,1.7c-13.27,0.87-26.52,2.09-39.75,3.47
		c-10.87,1.14-21.73,2.46-32.57,3.89c-11.07,1.46-22.14,2.97-33.19,4.62c-9.85,1.47-19.68,3.04-29.53,4.51
		c-4.14,0.62-6.1,2.84-6.17,7.1c-0.09,5.33-0.21,10.66-0.37,15.99c-0.51,17.32-1.04,34.64-1.55,51.95
		c-0.35,11.93-0.52,23.87-1.04,35.79c-0.49,11.27-0.49,22.52,0.47,33.76c1.07,12.59,2.66,25.12,5,37.55
		c4.56,24.23,11.75,47.62,21.95,70.06c17.78,39.1,43.29,72.38,75.71,100.4c26.5,22.91,56.04,41.04,87.8,55.67
		c2.03,0.93,3.92,0.98,5.9-0.03c4.45-2.28,8.97-4.43,13.37-6.81c21.44-11.57,41.32-25.45,60.01-41.04
		c20.16-16.81,38.58-35.32,54.77-56.01c14.21-18.15,25.89-37.79,34.65-59.14c7.33-17.84,12.71-36.25,16.14-55.24
		c2.19-12.16,3.9-24.38,4.35-36.71c0.64-17.32,0.51-34.66,0.32-52c-0.21-19.27-0.9-38.51-2.07-57.75
		c-0.82-13.53-1.96-27.04-3.31-40.52c-0.32-3.24-2.11-5.22-5.34-5.69c-6.21-0.91-12.45-1.68-18.67-2.52
		c-18.56-2.51-37.17-4.66-55.8-6.56c-16.6-1.69-33.23-3.15-49.88-4.22c-15.04-0.96-30.08-1.73-45.15-2.02
		c-4.17-0.08-8.33-0.26-12.5-0.39c-0.02-0.13,0.03-0.22,0.16-0.27c76.75,0,153.5,0,230.26-0.03c1.36,0,1.67,0.31,1.67,1.67
		c-0.04,171.45-0.04,342.91,0,514.36c0,1.36-0.31,1.67-1.67,1.67c-152.29-0.04-304.59-0.04-456.88,0c-1.36,0-1.67-0.31-1.67-1.67
		c0.04-118.4,0.03-236.81,0.03-355.21c0.08-0.08,0.18-0.13,0.29-0.15c0.66,0.51,0.35,1.23,0.38,1.86c0.17,3.68,0.1,7.35,0.28,11.04
		c0.3,6.13,0.77,12.24,1.21,18.35c0.2,2.75,0.46,5.51,0.82,8.23c0.84,6.32,1.68,12.63,2.75,18.92c1.14,6.75,2.43,13.46,3.96,20.13
		c1.43,6.24,3.01,12.44,4.77,18.6c2.77,9.68,5.94,19.23,9.52,28.64c2.73,7.19,5.8,14.23,8.96,21.25
		c4.32,9.57,8.79,19.05,14.56,27.84c6.75,10.3,13.77,20.42,21.3,30.19c5.6,7.26,11.37,14.38,17.42,21.26
		c5.08,5.78,10.39,11.37,15.78,16.88c3.65,3.74,7.6,7.2,11.42,10.78c6.32,5.93,12.93,11.53,19.73,16.9
		c6.33,5,12.83,9.76,19.47,14.33c6.92,4.76,14.04,9.17,21.3,13.4c9.37,5.46,18.95,10.51,28.74,15.15
		c9.73,4.62,19.69,8.7,29.72,12.59c0.89,0.35,1.8,1.13,2.97,0.57c7.46-3.56,15.03-6.92,22.39-10.68
		c6.79-3.47,13.52-7.07,20.15-10.85c8.52-4.87,16.91-9.94,25.11-15.32c14.43-9.48,28.32-19.69,41.5-30.87
		c7.05-5.98,13.9-12.15,20.56-18.54c7.17-6.87,13.85-14.22,20.38-21.71c4.28-4.9,8.42-9.91,12.35-15.08
		c5.69-7.48,11.06-15.2,16.06-23.19c6.23-9.95,11.88-20.2,16.88-30.82c5.45-11.58,10.06-23.49,13.79-35.74
		c2.87-9.43,5.12-19.01,7.01-28.69c2.17-11.13,3.62-22.36,4.94-33.6c0.83-7.08,1.37-14.2,1.81-21.31c0.29-4.74,0.62-9.49,0.7-14.24
		c0.11-6.08,0.42-12.16,0.58-18.23c0.11-4.17-0.11-8.35-0.24-12.52c-0.22-7.02-0.36-14.05-0.78-21.06
		c-0.81-13.46-2.08-26.89-3.99-40.25c-2.82-19.8-6.88-39.33-12.77-58.46c-0.21-0.68-0.15-1.91-1.54-1.38
		c-1.07,0.41-2.77-0.2-2.58,2.07c0.32,3.8,0.44,7.62,0.53,11.43c0.32,13.76,0.06,27.51-0.45,41.26c-0.7,18.88-1.98,37.72-3.44,56.55
		c-0.73,9.41-1.67,18.8-2.39,28.21c-0.87,11.28-1.93,22.53-3.74,33.7c-3.07,18.92-7.77,37.42-14.38,55.43
		c-12.04,32.78-29.91,62.08-52.52,88.56c-16.34,19.14-34.65,36.22-54.21,51.99c-22.56,18.18-46.5,34.4-71.13,49.62
		c-0.89,0.55-1.56,0.56-2.47,0.07c-19.85-10.65-39.14-22.19-57.55-35.2c-23.72-16.77-45.49-35.73-64.67-57.6
		c-17-19.39-31.48-40.51-43.86-63.12c-10.76-19.64-19.57-40.02-24.83-61.88c-4.25-17.67-7.85-35.45-10.71-53.39
		c-2.05-12.9-3.81-25.83-5.31-38.8c-1.36-11.78-2.48-23.58-3.41-35.4c-0.99-12.49-1.79-25-2.34-37.51
		c-0.51-11.5-0.8-23.01-0.89-34.52c0-0.45,0.26-1.14-0.31-1.29c-0.98-0.25-2.05-0.48-3.02-0.34c-0.82,0.12-0.62,1.2-0.76,1.84
		c-1.23,5.6-2.41,11.2-3.55,16.82c-2.28,11.31-4.26,22.67-5.95,34.08c-1.61,10.89-2.93,21.81-3.91,32.77
		c-0.7,7.72-1.24,15.45-1.56,23.19c-0.19,4.65-0.37,9.3-0.55,13.95C78.8,221.95,78.71,221.9,78.63,221.83z"/>
	<path class="st1" d="M78.93,235.13c-0.11,0.02-0.21,0.07-0.29,0.15c0-4.49,0-8.97,0-13.46c0.08,0.07,0.17,0.12,0.27,0.16
		C78.91,226.37,78.92,230.75,78.93,235.13z"/>
	<path class="st1" d="M306.89,74.5c-0.13,0.05-0.18,0.14-0.16,0.27c-2.08,0-4.15,0-6.23,0c0.02-0.13-0.03-0.22-0.16-0.27
		C302.53,74.5,304.71,74.5,306.89,74.5z"/>
	<path class="st2" d="M78.93,235.13c-0.01-4.38-0.01-8.77-0.02-13.15c0.18-4.65,0.36-9.3,0.55-13.95
		c0.32-7.74,0.86-15.47,1.56-23.19c0.99-10.96,2.31-21.89,3.91-32.77c1.69-11.41,3.67-22.77,5.95-34.08
		c1.13-5.62,2.32-11.22,3.55-16.82c0.14-0.64-0.05-1.72,0.76-1.84c0.98-0.14,2.04,0.09,3.02,0.34c0.57,0.15,0.3,0.84,0.31,1.29
		c0.09,11.51,0.39,23.02,0.89,34.52c0.55,12.52,1.36,25.02,2.34,37.51c0.93,11.82,2.05,23.62,3.41,35.4
		c1.5,12.97,3.26,25.9,5.31,38.8c2.86,17.94,6.45,35.73,10.71,53.39c5.26,21.86,14.07,42.23,24.83,61.88
		c12.38,22.61,26.87,43.73,43.86,63.12c19.18,21.88,40.95,40.83,64.67,57.6c18.4,13.01,37.7,24.55,57.55,35.2
		c0.91,0.49,1.58,0.48,2.47-0.07c24.63-15.22,48.57-31.43,71.13-49.62c19.56-15.76,37.87-32.85,54.21-51.99
		c22.61-26.49,40.48-55.79,52.52-88.56c6.62-18.01,11.31-36.51,14.38-55.43c1.81-11.17,2.87-22.42,3.74-33.7
		c0.72-9.41,1.66-18.8,2.39-28.21c1.46-18.83,2.74-37.67,3.44-56.55c0.51-13.75,0.76-27.51,0.45-41.26
		c-0.09-3.81-0.2-7.63-0.53-11.43c-0.19-2.27,1.51-1.66,2.58-2.07c1.39-0.53,1.33,0.7,1.54,1.38c5.89,19.13,9.95,38.66,12.77,58.46
		c1.9,13.36,3.17,26.79,3.99,40.25c0.42,7.01,0.56,14.04,0.78,21.06c0.13,4.17,0.35,8.35,0.24,12.52
		c-0.16,6.08-0.47,12.15-0.58,18.23c-0.08,4.74-0.41,9.5-0.7,14.24c-0.44,7.12-0.98,14.24-1.81,21.31
		c-1.32,11.24-2.77,22.47-4.94,33.6c-1.89,9.69-4.14,19.26-7.01,28.69c-3.73,12.25-8.34,24.15-13.79,35.74
		c-5,10.62-10.65,20.87-16.88,30.82c-5,7.99-10.37,15.7-16.06,23.19c-3.93,5.17-8.08,10.17-12.35,15.08
		c-6.53,7.49-13.21,14.84-20.38,21.71c-6.66,6.39-13.51,12.56-20.56,18.54c-13.18,11.18-27.07,21.39-41.5,30.87
		c-8.2,5.39-16.59,10.46-25.11,15.32c-6.63,3.79-13.36,7.39-20.15,10.85c-7.36,3.76-14.93,7.12-22.39,10.68
		c-1.17,0.56-2.07-0.22-2.97-0.57c-10.04-3.88-19.99-7.97-29.72-12.59c-9.8-4.65-19.37-9.69-28.74-15.15
		c-7.26-4.23-14.38-8.65-21.3-13.4c-6.64-4.57-13.14-9.33-19.47-14.33c-6.81-5.38-13.41-10.97-19.73-16.9
		c-3.82-3.58-7.77-7.04-11.42-10.78c-5.38-5.51-10.69-11.1-15.78-16.88c-6.05-6.88-11.82-14-17.42-21.26
		c-7.53-9.77-14.55-19.88-21.3-30.19c-5.76-8.79-10.24-18.27-14.56-27.84c-3.17-7.01-6.23-14.06-8.96-21.25
		c-3.58-9.41-6.75-18.95-9.52-28.64c-1.76-6.16-3.34-12.36-4.77-18.6c-1.53-6.66-2.82-13.38-3.96-20.13
		c-1.07-6.29-1.91-12.61-2.75-18.92c-0.36-2.72-0.62-5.48-0.82-8.23c-0.45-6.11-0.91-12.22-1.21-18.35
		c-0.18-3.68-0.11-7.36-0.28-11.04C79.28,236.36,79.58,235.64,78.93,235.13z M521.32,118.38c-0.53,6.77-0.47,13.44-0.6,20.1
		c-0.28,14.72-0.98,29.42-1.9,44.11c-0.63,10.09-1.37,20.17-2.17,30.24c-1.01,12.73-2.12,25.45-3.26,38.16
		c-1.09,12.19-2.84,24.27-5.31,36.25c-5.5,26.59-14.4,51.98-27.06,76.03c-12.29,23.35-27.59,44.55-45.32,64.03
		c-13.19,14.49-27.46,27.86-42.57,40.33c-24.75,20.43-51.23,38.41-78.53,55.21c-0.85,0.52-1.46,0.48-2.31,0.02
		c-8.92-4.76-17.76-9.65-26.44-14.82c-24.71-14.71-48.2-31.12-69.63-50.38c-15.49-13.92-29.68-29.05-42.44-45.53
		c-11.48-14.83-21.66-30.51-30.66-46.95c-5.73-10.47-11.25-21.07-15.66-32.16c-8.49-21.35-13.28-43.71-17.54-66.2
		c-2.33-12.3-4.24-24.67-5.95-37.07c-1.44-10.49-2.75-20.99-3.83-31.52c-1.04-10.11-1.93-20.24-2.68-30.38
		c-0.94-12.8-1.78-25.61-2.1-38.45c-0.09-3.6-0.01-7.21-0.01-10.81c-0.23-0.01-0.46-0.02-0.69-0.04
		c-1.22,6.64-2.53,13.26-3.63,19.92c-2.28,13.79-4.22,27.61-5.61,41.53c-1.14,11.39-2.01,22.8-2.33,34.23
		c-0.31,11.45-0.34,22.9,0.22,34.36c0.51,10.35,1.37,20.66,2.7,30.92c2.18,16.81,5.33,33.45,10.09,49.74
		c9.36,32.06,21.53,62.83,40.87,90.41c13.45,19.19,27.97,37.45,44.39,54.17c19.65,20.01,41.38,37.42,65.27,52.14
		c20.83,12.83,42.77,23.38,65.64,32.02c0.68,0.26,1.22,0.26,1.88-0.06c3.11-1.49,6.27-2.88,9.38-4.36
		c15.91-7.6,31.38-16,46.38-25.26c20.19-12.45,39.29-26.4,57.11-42.06c11.34-9.96,22.03-20.59,32.03-31.91
		c11.13-12.6,21.25-25.95,30.2-40.18c9.76-15.52,18.02-31.8,24.53-48.96c4.66-12.3,8.46-24.85,11.21-37.71
		c3.12-14.57,5.19-29.3,6.66-44.12c1.22-12.3,2.05-24.62,2.34-36.97c0.42-18.36,0.15-36.71-1.3-55.03
		c-0.72-9.05-1.56-18.09-2.74-27.09c-1.54-11.69-3.47-23.33-6.05-34.85C523.08,125.74,522.18,122.06,521.32,118.38z"/>
	<path class="st2" d="M300.5,74.77c2.08,0,4.15,0,6.23,0c4.17,0.13,8.33,0.31,12.5,0.39c15.07,0.29,30.12,1.06,45.15,2.02
		c16.65,1.07,33.28,2.53,49.88,4.22c18.64,1.9,37.24,4.05,55.8,6.56c6.22,0.84,12.46,1.62,18.67,2.52c3.23,0.47,5.02,2.45,5.34,5.69
		c1.35,13.49,2.5,26.99,3.31,40.52c1.16,19.23,1.86,38.48,2.07,57.75c0.18,17.34,0.32,34.67-0.32,52
		c-0.45,12.33-2.16,24.56-4.35,36.71c-3.43,18.99-8.81,37.4-16.14,55.24c-8.77,21.35-20.44,40.98-34.65,59.14
		c-16.2,20.69-34.62,39.2-54.77,56.01c-18.7,15.59-38.57,29.47-60.01,41.04c-4.4,2.37-8.92,4.53-13.37,6.81
		c-1.97,1.01-3.87,0.96-5.9,0.03c-31.75-14.63-61.3-32.76-87.8-55.67c-32.42-28.03-57.93-61.31-75.71-100.4
		c-10.21-22.44-17.39-45.83-21.95-70.06c-2.34-12.43-3.93-24.96-5-37.55c-0.95-11.24-0.96-22.49-0.47-33.76
		c0.52-11.92,0.69-23.86,1.04-35.79c0.51-17.32,1.04-34.64,1.55-51.95c0.16-5.33,0.28-10.66,0.37-15.99
		c0.07-4.26,2.04-6.48,6.17-7.1c9.85-1.47,19.68-3.04,29.53-4.51c11.05-1.65,22.12-3.16,33.19-4.62c10.84-1.43,21.7-2.76,32.57-3.89
		c13.23-1.38,26.47-2.61,39.75-3.47c12.14-0.79,24.28-1.45,36.44-1.7C299.92,74.94,300.21,74.83,300.5,74.77z M493.62,193.7
		c-0.76-38.45-1.98-61.93-5.26-95.78c-0.13-1.33-0.57-1.71-1.78-1.86c-13.51-1.71-27-3.54-40.52-5.17
		c-11.48-1.38-22.98-2.56-34.47-3.79c-13.06-1.4-26.15-2.53-39.26-3.45c-14.86-1.05-29.74-1.72-44.63-2.39
		c-23.71-1.07-47.34,0.01-70.97,1.75c-14.67,1.08-29.31,2.52-43.93,4.23c-13.65,1.59-27.28,3.31-40.87,5.28
		c-14.07,2.04-28.12,4.26-42.18,6.32c-1.47,0.21-1.88,0.74-1.91,2.16c-0.2,8.79-0.49,17.57-0.75,26.36
		c-0.63,21.63-1.23,43.26-1.9,64.89c-0.56,17.93-1.06,35.84,0.94,53.75c2.32,20.75,6.07,41.18,12.15,61.16
		c14.33,47.08,39.18,87.75,74.45,122.03c28.97,28.15,62.45,49.61,98.93,66.59c0.85,0.4,1.53,0.43,2.37-0.01
		c3.28-1.69,6.63-3.25,9.88-4.99c35.94-19.22,67.53-44.1,95.52-73.65c14.16-14.95,26.92-31,37.55-48.67
		c13.78-22.88,23.35-47.48,29.39-73.47c3.74-16.08,6.23-32.38,6.88-48.86C493.98,227.82,493.86,209.51,493.62,193.7z"/>
	<path class="st1" d="M521.32,118.38c0.86,3.68,1.76,7.36,2.58,11.06c2.58,11.52,4.51,23.15,6.05,34.85
		c1.18,9,2.02,18.03,2.74,27.09c1.45,18.32,1.72,36.68,1.3,55.03c-0.28,12.34-1.11,24.67-2.34,36.97
		c-1.47,14.83-3.54,29.55-6.66,44.12c-2.75,12.86-6.55,25.41-11.21,37.71c-6.51,17.16-14.77,33.44-24.53,48.96
		c-8.95,14.23-19.07,27.58-30.2,40.18c-10,11.32-20.69,21.95-32.03,31.91c-17.83,15.66-36.92,29.61-57.11,42.06
		c-15.01,9.26-30.48,17.66-46.38,25.26c-3.11,1.49-6.27,2.88-9.38,4.36c-0.67,0.32-1.2,0.31-1.88,0.06
		c-22.87-8.65-44.81-19.19-65.64-32.02c-23.89-14.72-45.61-32.13-65.27-52.14c-16.42-16.72-30.94-34.99-44.39-54.17
		c-19.35-27.58-31.51-58.35-40.87-90.41c-4.75-16.29-7.91-32.93-10.09-49.74c-1.33-10.26-2.18-20.58-2.7-30.92
		c-0.57-11.45-0.54-22.91-0.22-34.36c0.31-11.43,1.18-22.84,2.33-34.23c1.39-13.91,3.34-27.74,5.61-41.53
		c1.1-6.66,2.41-13.28,3.63-19.92c0.23,0.01,0.46,0.02,0.69,0.04c0,3.6-0.08,7.21,0.01,10.81c0.32,12.84,1.16,25.64,2.1,38.45
		c0.74,10.14,1.63,20.27,2.68,30.38c1.09,10.53,2.39,21.04,3.83,31.52c1.71,12.4,3.62,24.77,5.95,37.07
		c4.26,22.49,9.05,44.85,17.54,66.2c4.41,11.09,9.93,21.69,15.66,32.16c9,16.45,19.17,32.13,30.66,46.95
		c12.76,16.47,26.96,31.6,42.44,45.53c21.43,19.26,44.92,35.67,69.63,50.38c8.68,5.17,17.52,10.07,26.44,14.82
		c0.85,0.45,1.46,0.5,2.31-0.02c27.3-16.8,53.78-34.78,78.53-55.21c15.11-12.47,29.38-25.84,42.57-40.33
		c17.73-19.48,33.03-40.68,45.32-64.03c12.66-24.05,21.56-49.44,27.06-76.03c2.48-11.97,4.22-24.06,5.31-36.25
		c1.14-12.72,2.25-25.44,3.26-38.16c0.8-10.08,1.54-20.16,2.17-30.24c0.92-14.69,1.62-29.39,1.9-44.11
		C520.85,131.81,520.79,125.15,521.32,118.38z"/>
	<path class="st0" d="M493.62,193.7c0.23,15.81,0.36,34.13-0.37,52.42c-0.66,16.49-3.15,32.78-6.88,48.86
		c-6.04,25.99-15.61,50.58-29.39,73.47c-10.64,17.67-23.4,33.72-37.55,48.67c-27.98,29.55-59.58,54.43-95.52,73.65
		c-3.25,1.74-6.6,3.3-9.88,4.99c-0.84,0.43-1.52,0.4-2.37,0.01c-36.48-16.98-69.97-38.44-98.93-66.59
		c-35.27-34.28-60.13-74.95-74.45-122.03c-6.08-19.98-9.83-40.41-12.15-61.16c-2-17.91-1.49-35.82-0.94-53.75
		c0.67-21.63,1.27-43.26,1.9-64.89c0.26-8.79,0.54-17.57,0.75-26.36c0.03-1.41,0.44-1.94,1.91-2.16
		c14.07-2.06,28.11-4.28,42.18-6.32c13.6-1.97,27.23-3.69,40.87-5.28c14.61-1.71,29.25-3.14,43.93-4.23
		c23.63-1.74,47.26-2.82,70.97-1.75c14.88,0.67,29.77,1.34,44.63,2.39c13.11,0.93,26.2,2.06,39.26,3.45
		c11.5,1.23,23,2.41,34.47,3.79c13.52,1.63,27.01,3.46,40.52,5.17c1.2,0.15,1.65,0.53,1.78,1.86
		C491.65,131.77,492.86,155.25,493.62,193.7z M345.28,253.64c-0.83-2.08-0.58-3.94-0.75-5.74c-0.73-7.72-1.37-15.44-2.03-23.17
		c-0.64-7.36-1.25-14.72-1.92-22.08c-0.17-1.87-2.36-3.88-4-3.87c-1.56,0.01-3.59,2.01-3.81,3.85c-1.48,12.14-2.94,24.28-4.4,36.42
		c-1.37,11.42-2.72,22.84-4.1,34.25c-1.05,8.65-2.14,17.3-3.21,25.95c-1.32,10.75-2.64,21.5-3.95,32.26c-0.06,0.49-0.02,1-0.73,1.12
		c-0.58-8.1-1.16-16.19-1.74-24.28c-0.65-9.06-1.29-18.13-1.93-27.19c-0.54-7.73-1.04-15.47-1.59-23.21
		c-0.8-11.3-1.62-22.6-2.42-33.9c-0.65-9.25-1.28-18.49-1.94-27.74c-0.8-11.3-1.63-22.6-2.43-33.89
		c-0.53-7.49-1.05-14.99-1.53-22.48c-0.12-1.85-1.27-2.84-2.73-3.52c-1.38-0.64-2.64-0.13-3.9,0.66c-2.02,1.26-1.54,3.25-1.7,5.05
		c-0.95,10.86-1.9,21.72-2.8,32.58c-1.04,12.49-2,24.99-3.03,37.49c-1.18,14.43-2.39,28.85-3.6,43.28c-0.13,1.6-0.36,3.19-0.55,4.79
		c-0.39-0.22-0.46-0.39-0.49-0.56c-1.06-5.95-2.08-11.91-3.19-17.86c-0.35-1.91-2.4-3.68-3.97-3.64c-1.67,0.04-3.66,1.78-4.06,3.64
		c-1.24,5.79-2.5,11.58-3.63,17.39c-0.24,1.21-0.65,1.56-1.86,1.56c-6.84-0.05-13.69-0.06-20.53,0.03
		c-1.47,0.02-1.78-0.42-1.78-1.82c0.07-10.67,0.05-21.34,0.07-32.01c0.01-11.4-0.16-22.8,0.11-34.19c0.15-6.4,2.86-11.57,9.28-14.06
		c3.61-1.4,7.39-1.74,11.22-1.79c3.11-0.04,3.11-0.08,3.11-3.22c0-2.33,0-2.33-2.39-2.33c-27.99,0-55.97,0-83.96,0.01
		c-3.89,0-3.84,0.01-3.82,3.99c0,1.19,0.34,1.59,1.53,1.59c3.21-0.01,6.4,0.1,9.56,0.8c6.11,1.36,10.32,4.72,11.95,10.96
		c0.91,3.48,1.25,7.03,1.25,10.61c0.02,19.88,0,39.77,0.06,59.65c0.01,1.59-0.52,1.86-1.95,1.86c-9.69-0.03-19.38,0.02-29.08,0.05
		c-2.29,0.01-4.22,1.62-4.23,3.53c-0.02,1.92,1.92,3.56,4.21,3.56c9.75,0,19.51,0.03,29.26-0.03c1.43-0.01,1.8,0.38,1.8,1.81
		c-0.05,20.49-0.02,40.98-0.04,61.47c0,3.88-0.38,7.75-1.44,11.5c-1.37,4.82-4.15,8.38-9.1,9.98c-3.4,1.1-6.89,1.22-10.41,1.18
		c-3.68-0.04-3.68-0.04-3.69,3.63c-0.01,2.38-0.01,2.37,2.32,2.37c28.11-0.09,56.21-0.18,84.32-0.26c3.95-0.01,3.92-0.01,3.87-3.92
		c-0.01-1.12-0.28-1.58-1.51-1.65c-3.19-0.18-6.4-0.27-9.56-0.9c-5.6-1.12-9.62-3.96-11.31-9.66c-1.4-4.71-1.54-9.55-1.53-14.39
		c0-19.64,0.12-39.28,0.08-58.93c0-1.95,0.64-2.23,2.35-2.21c8.18,0.09,16.35,0.05,24.53,0.05c2.32,0,3.41-0.95,3.77-3.25
		c0.11-0.73,0.31-1.37,1.06-1.82c-0.09,1.03,0.52,1.77,0.68,2.66c1.59,8.31,3.2,16.62,4.79,24.93c0.33,1.75,2.09,3.3,3.74,3.23
		c1.66-0.07,3.46-1.69,3.62-3.46c0.61-6.76,1.17-13.52,1.72-20.28c1.14-14.13,2.25-28.26,3.38-42.38
		c0.94-11.71,1.89-23.42,2.85-35.13c0.28-3.36,0.61-6.72,0.92-10.19c0.73,2,0.47,3.95,0.61,5.86c0.84,11.24,1.63,22.48,2.44,33.71
		c0.68,9.49,1.36,18.98,2.03,28.46c0.79,11.12,1.58,22.24,2.36,33.36c0.65,9.19,1.28,18.37,1.93,27.56c0.8,11.3,1.61,22.6,2.43,33.9
		c0.55,7.67,1.11,15.35,1.7,23.02c0.15,1.93,1.86,3.45,3.72,3.45c1.77,0,3.42-1.67,3.65-3.58c0.98-8.17,1.98-16.34,3-24.51
		c1.16-9.25,2.37-18.49,3.51-27.74c1.28-10.33,2.51-20.67,3.79-31c1.51-12.26,3.05-24.51,4.58-36.76c0.54-4.31,1.07-8.61,1.6-12.92
		c0.41,2.78,0.72,5.53,0.94,8.29c0.89,10.99,1.76,21.98,2.65,32.96c0.18,2.21,1.77,4.11,3.48,4.32c1.8,0.22,3.63-1.33,4.29-3.7
		c0.68-2.45,1.29-4.91,1.94-7.37c0.8-3.01,1.62-6.01,2.52-9.34c0.38,0.64,0.6,0.91,0.73,1.23c1.21,3.13,3.51,4.42,6.81,4.29
		c2.72-0.11,5.45,0.03,8.18-0.07c1.38-0.05,1.8,0.31,1.8,1.8c-0.06,20.67-0.04,41.35-0.03,62.02c0,4.01-0.23,7.99-1.12,11.91
		c-1.26,5.56-4.17,9.73-9.9,11.41c-3.29,0.97-6.67,1.07-10.07,1.01c-3.55-0.07-3.57-0.04-3.54,3.43c0.03,2.77-0.48,2.58,2.66,2.57
		c27.99-0.08,55.97-0.17,83.96-0.26c3.96-0.01,3.9-0.01,3.87-3.91c-0.01-1.28-0.45-1.63-1.65-1.68c-3.2-0.13-6.4-0.28-9.57-0.91
		c-6.02-1.2-9.97-4.51-11.46-10.63c-0.98-4.04-1.26-8.14-1.26-12.26c0-20.91,0.1-41.83,0.1-62.74c0-1.62,0.48-2.03,2.06-2.02
		c9.87,0.05,19.75,0,29.62-0.03c1.82-0.01,3.52-1.79,3.51-3.63c-0.01-1.87-1.54-3.39-3.45-3.4c-9.81-0.04-19.63-0.12-29.44-0.04
		c-1.88,0.01-2.3-0.53-2.29-2.33c0.09-14,0.07-28.01,0.08-42.01c0.01-7.03-0.12-14.07,0.08-21.09c0.22-7.87,4.19-12.88,11.37-14.92
		c3.05-0.87,6.19-1.04,9.34-1.09c2.93-0.05,2.96-0.08,2.9-3.03c-0.04-2.53,0.61-2.51-2.54-2.51c-27.86,0-55.73,0-83.59,0
		c-4.17,0-4.13,0-4.05,4.16c0.02,1.13,0.4,1.43,1.48,1.43c2.6,0.01,5.2,0.01,7.79,0.44c8.86,1.46,12.9,5.4,14.43,14.24
		c0.48,2.75,0.63,5.53,0.63,8.32c0.01,18.79-0.01,37.59,0.05,56.38c0,1.51-0.37,2.01-1.91,1.92c-2.23-0.13-4.48-0.06-6.72,0
		c-1.04,0.03-1.6-0.28-2.03-1.3c-1.36-3.23-2.91-6.38-4.3-9.6c-0.74-1.72-1.88-2.85-3.78-2.88c-1.62-0.03-3.28,1.67-3.76,3.63
		C346.16,249.84,345.77,251.55,345.28,253.64z"/>
	<path class="st3" d="M345.28,253.64c0.49-2.09,0.88-3.79,1.29-5.49c0.48-1.96,2.14-3.66,3.76-3.63c1.9,0.03,3.04,1.17,3.78,2.88
		c1.39,3.22,2.94,6.37,4.3,9.6c0.43,1.02,0.99,1.33,2.03,1.3c2.24-0.07,4.49-0.13,6.72,0c1.54,0.09,1.91-0.41,1.91-1.92
		c-0.06-18.79-0.04-37.59-0.05-56.38c0-2.79-0.15-5.57-0.63-8.32c-1.53-8.84-5.58-12.78-14.43-14.24c-2.59-0.43-5.19-0.43-7.79-0.44
		c-1.08,0-1.45-0.3-1.48-1.43c-0.08-4.16-0.13-4.16,4.05-4.16c27.86,0,55.73,0,83.59,0c3.15,0,2.5-0.01,2.54,2.51
		c0.05,2.95,0.03,2.97-2.9,3.03c-3.15,0.06-6.29,0.23-9.34,1.09c-7.18,2.04-11.15,7.05-11.37,14.92c-0.2,7.03-0.07,14.06-0.08,21.09
		c-0.02,14,0,28.01-0.08,42.01c-0.01,1.8,0.42,2.34,2.29,2.33c9.81-0.07,19.63,0.01,29.44,0.04c1.91,0.01,3.44,1.53,3.45,3.4
		c0.01,1.84-1.7,3.63-3.51,3.63c-9.87,0.03-19.75,0.09-29.62,0.03c-1.59-0.01-2.06,0.4-2.06,2.02c0,20.91-0.09,41.83-0.1,62.74
		c0,4.11,0.28,8.22,1.26,12.26c1.49,6.12,5.44,9.43,11.46,10.63c3.16,0.63,6.36,0.77,9.57,0.91c1.2,0.05,1.64,0.41,1.65,1.68
		c0.02,3.9,0.08,3.9-3.87,3.91c-27.99,0.09-55.97,0.18-83.96,0.26c-3.14,0.01-2.63,0.19-2.66-2.57c-0.04-3.46-0.01-3.49,3.54-3.43
		c3.4,0.06,6.78-0.04,10.07-1.01c5.73-1.68,8.64-5.85,9.9-11.41c0.89-3.92,1.12-7.9,1.12-11.91c-0.01-20.67-0.03-41.35,0.03-62.02
		c0-1.48-0.42-1.84-1.8-1.8c-2.72,0.09-5.45-0.04-8.18,0.07c-3.3,0.13-5.6-1.16-6.81-4.29c-0.12-0.32-0.35-0.6-0.73-1.23
		c-0.9,3.33-1.72,6.33-2.52,9.34c-0.66,2.45-1.26,4.92-1.94,7.37c-0.66,2.37-2.49,3.92-4.29,3.7c-1.71-0.21-3.3-2.11-3.48-4.32
		c-0.9-10.99-1.76-21.98-2.65-32.96c-0.22-2.76-0.52-5.51-0.94-8.29c-0.53,4.31-1.07,8.61-1.6,12.92
		c-1.53,12.25-3.07,24.51-4.58,36.76c-1.28,10.33-2.5,20.67-3.79,31c-1.15,9.25-2.36,18.49-3.51,27.74
		c-1.02,8.17-2.02,16.34-3,24.51c-0.23,1.9-1.89,3.58-3.65,3.58c-1.86,0-3.57-1.52-3.72-3.45c-0.59-7.67-1.15-15.34-1.7-23.02
		c-0.82-11.3-1.63-22.6-2.43-33.9c-0.65-9.19-1.28-18.37-1.93-27.56c-0.78-11.12-1.57-22.24-2.36-33.36
		c-0.67-9.49-1.35-18.98-2.03-28.46c-0.81-11.24-1.6-22.48-2.44-33.71c-0.14-1.91,0.12-3.86-0.61-5.86
		c-0.32,3.47-0.65,6.83-0.92,10.19c-0.96,11.71-1.91,23.42-2.85,35.13c-1.13,14.13-2.24,28.26-3.38,42.38
		c-0.55,6.76-1.11,13.52-1.72,20.28c-0.16,1.76-1.96,3.38-3.62,3.46c-1.66,0.07-3.41-1.48-3.74-3.23
		c-1.59-8.31-3.2-16.62-4.79-24.93c-0.17-0.88-0.78-1.63-0.68-2.66c-0.75,0.45-0.95,1.09-1.06,1.82c-0.36,2.3-1.45,3.24-3.77,3.25
		c-8.18,0.01-16.36,0.04-24.53-0.05c-1.72-0.02-2.36,0.26-2.35,2.21c0.03,19.64-0.08,39.28-0.08,58.93c0,4.84,0.13,9.68,1.53,14.39
		c1.7,5.7,5.71,8.53,11.31,9.66c3.17,0.63,6.37,0.72,9.56,0.9c1.23,0.07,1.49,0.53,1.51,1.65c0.04,3.92,0.08,3.91-3.87,3.92
		c-28.11,0.09-56.21,0.17-84.32,0.26c-2.32,0.01-2.32,0.01-2.32-2.37c0.01-3.67,0.01-3.68,3.69-3.63c3.52,0.04,7-0.08,10.41-1.18
		c4.95-1.6,7.73-5.16,9.1-9.98c1.06-3.75,1.44-7.61,1.44-11.5c0.02-20.49-0.01-40.98,0.04-61.47c0-1.43-0.37-1.82-1.8-1.81
		c-9.75,0.06-19.5,0.03-29.26,0.03c-2.29,0-4.22-1.64-4.21-3.56c0.02-1.91,1.94-3.53,4.23-3.53c9.69-0.03,19.38-0.08,29.08-0.05
		c1.43,0,1.96-0.26,1.95-1.86c-0.07-19.88-0.05-39.77-0.06-59.65c0-3.58-0.35-7.13-1.25-10.61c-1.62-6.24-5.84-9.6-11.95-10.96
		c-3.16-0.7-6.36-0.81-9.56-0.8c-1.19,0-1.53-0.4-1.53-1.59c-0.01-3.99-0.06-3.99,3.82-3.99c27.99,0,55.97,0,83.96-0.01
		c2.39,0,2.39,0,2.39,2.33c0,3.14,0,3.18-3.11,3.22c-3.83,0.04-7.61,0.39-11.22,1.79c-6.41,2.49-9.12,7.66-9.28,14.06
		c-0.27,11.39-0.1,22.79-0.11,34.19c-0.01,10.67,0,21.34-0.07,32.01c-0.01,1.39,0.3,1.84,1.78,1.82c6.84-0.09,13.69-0.08,20.53-0.03
		c1.2,0.01,1.62-0.34,1.86-1.56c1.14-5.81,2.39-11.6,3.63-17.39c0.4-1.86,2.38-3.6,4.06-3.64c1.57-0.04,3.61,1.73,3.97,3.64
		c1.1,5.95,2.13,11.91,3.19,17.86c0.03,0.17,0.1,0.34,0.49,0.56c0.19-1.6,0.42-3.19,0.55-4.79c1.21-14.42,2.42-28.85,3.6-43.28
		c1.02-12.49,1.99-24.99,3.03-37.49c0.9-10.86,1.85-21.72,2.8-32.58c0.16-1.81-0.32-3.79,1.7-5.05c1.26-0.79,2.52-1.31,3.9-0.66
		c1.46,0.68,2.61,1.67,2.73,3.52c0.48,7.5,1,14.99,1.53,22.48c0.8,11.3,1.63,22.6,2.43,33.89c0.66,9.25,1.29,18.49,1.94,27.74
		c0.8,11.3,1.62,22.6,2.42,33.9c0.54,7.73,1.05,15.47,1.59,23.21c0.63,9.06,1.28,18.13,1.93,27.19c0.58,8.09,1.16,16.19,1.74,24.28
		c0.71-0.13,0.67-0.63,0.73-1.12c1.31-10.75,2.63-21.51,3.95-32.26c1.06-8.65,2.16-17.29,3.21-25.95
		c1.38-11.41,2.73-22.83,4.1-34.25c1.46-12.14,2.92-24.28,4.4-36.42c0.22-1.84,2.25-3.84,3.81-3.85c1.64-0.01,3.83,2.01,4,3.87
		c0.67,7.36,1.29,14.72,1.92,22.08c0.67,7.72,1.31,15.45,2.03,23.17C344.7,249.7,344.45,251.55,345.28,253.64z"/>
</g>
</svg>
